<?xml version="1.0" encoding="UTF-8"?>
<svg width="238px" height="30px" viewBox="0 0 238 30" version="1.1" xmlns="http://www.w3.org/2000/svg" xmlns:xlink="http://www.w3.org/1999/xlink">
    <!-- Generator: Sketch 49.2 (51160) - http://www.bohemiancoding.com/sketch -->
    <title>Combined Shape</title>
    <desc>Created with Sketch.</desc>
    <defs></defs>
    <g id="v4--flow" stroke="none" stroke-width="1" fill="none" fill-rule="evenodd">
        <g id="1200-or-&gt;-copy-5" transform="translate(-397.000000, -135.000000)" fill="#FFFFFF">
            <g id="Group" transform="translate(397.000000, 135.000000)">
                <g id="Page-1">
                    <path d="M21.8232946,6.39326061 C22.3014066,7.50574545 22.5341716,8.64029091 22.5341716,9.79689697 C22.5341716,11.0007758 22.3139885,12.1699879 21.8736222,13.3045333 C21.4301105,14.4264727 20.8073067,15.4381091 19.9957746,16.3079273 C19.1905334,17.1903515 18.2185821,17.8994424 17.0799207,18.4162909 C15.9538412,18.9425939 14.6893609,19.1947152 13.3179345,19.1947152 L3.95700557,19.1947152 L3.95700557,29.7176242 L0,29.7176242 L0,15.8950788 L13.0977513,15.8950788 C13.9187199,15.8950788 14.6547607,15.7469576 15.327892,15.425503 C15.979005,15.1040485 16.5546266,14.6691394 17.0201567,14.1081697 C17.4856868,13.5440485 17.8662891,12.8916848 18.1210724,12.1479273 C18.3915831,11.4010182 18.5142566,10.6225939 18.5142566,9.79689697 C18.5142566,8.93653333 18.3664193,8.14550303 18.0613084,7.40174545 C17.7436156,6.65798788 17.3378495,6.01507879 16.8219919,5.46356364 C16.3092797,4.9152 15.7084943,4.48029091 15.0101992,4.18089697 C14.324486,3.88150303 13.6010271,3.72392727 12.8272406,3.72392727 L3.95700557,3.72392727 L3.95700557,8.17071515 L0,8.17071515 L0,0.421139394 L13.0474238,0.421139394 C14.4345776,0.421139394 15.7084943,0.695321212 16.8723195,1.2342303 C18.0235627,1.76368485 19.0269688,2.48538182 19.8605192,3.38041212 C20.709797,4.27229091 21.3577646,5.27132121 21.8232946,6.39326061 Z M28.8867698,29.7220364 L28.8867698,0.425551515 L42.2990684,0.425551515 C43.6799313,0.425551515 44.9507025,0.693430303 46.1145277,1.23233939 C47.2752074,1.76809697 48.275468,2.48349091 49.1153094,3.3753697 C49.9520053,4.2704 50.6062638,5.27258182 51.0780848,6.38821818 C51.5467603,7.50385455 51.7826708,8.63524848 51.7826708,9.79500606 C51.7826708,10.8097939 51.6285426,11.7962182 51.3202862,12.7416727 C51.0088844,13.6902788 50.5716636,14.5537939 49.9960419,15.3196121 C49.4235658,16.0917333 48.7315616,16.7535515 47.9231749,17.3019152 C47.1147883,17.8534303 46.2088919,18.2505212 45.2086314,18.4994909 L52.7986587,29.7220364 L48.2974863,29.7220364 L41.1509706,19.1991273 L32.8563572,19.1991273 L32.8563572,29.7220364 L28.8867698,29.7220364 Z M85.7003108,9.68533333 C86.4111878,11.4627879 86.7540444,13.2717576 86.7540444,15.1185455 C86.7540444,17.0661818 86.386024,18.9350303 85.6374013,20.7219394 C84.8919241,22.512 83.8633543,24.0940606 82.5516919,25.4555152 C81.3973031,26.6499394 80.0636224,27.6237576 78.5317768,28.4021818 L78.5317768,24.2642424 C79.0319071,23.8766061 79.4848553,23.4290909 79.9032032,22.934303 C80.8216815,21.8470303 81.5325585,20.6210909 82.0232523,19.2438788 C82.5013643,17.8698182 82.7467112,16.4831515 82.7467112,15.0712727 C82.7467112,13.5837576 82.4887824,12.1498182 81.9729248,10.7631515 C81.4602126,9.37648485 80.7241718,8.15054545 79.7679479,7.08218182 C78.8148694,6.02957576 77.6730626,5.18181818 76.3739821,4.55151515 C75.0623196,3.92121212 73.6185473,3.59975758 72.0237923,3.59975758 C70.3441095,3.59975758 68.8500096,3.93066667 67.5257653,4.59563636 C66.2046665,5.248 65.0754415,6.1209697 64.1569633,7.18618182 C63.2259031,8.264 62.5150261,9.48993939 62.0117504,10.8671515 C61.5116201,12.2412121 61.2631277,13.6404848 61.2631277,15.0712727 C61.2631277,16.3570909 61.4612926,17.6050909 61.8513313,18.8089697 L57.7339065,18.8089697 C57.4036318,17.5830303 57.2463582,16.3318788 57.2463582,15.0712727 C57.2463582,13.1236364 57.6269604,11.2547879 58.3724376,9.46787879 C59.1210603,7.6809697 60.162212,6.09890909 61.4864563,4.71224242 C62.8107007,3.34763636 64.3771464,2.24775758 66.1795027,1.43151515 C67.9944409,0.631030303 69.9540708,0.218181818 72.0741199,0.218181818 C74.2790968,0.218181818 76.2764724,0.653090909 78.0662468,1.52290909 C79.868603,2.38327273 81.409885,3.51781818 82.6963836,4.92969697 C83.9954642,6.32581818 85.0020157,7.92048485 85.7003108,9.68533333 Z M120.776429,29.7220364 L120.776429,7.06894545 L110.364912,24.440097 L108.115898,24.440097 L97.6603444,7.06894545 L97.6603444,29.7220364 L93.6907569,29.7220364 L93.6907569,0.425551515 L97.883673,0.425551515 L109.219959,19.448097 L120.600282,0.425551515 L124.749162,0.425551515 L124.749162,29.7220364 L120.776429,29.7220364 Z M155.490502,6.38632727 C155.968614,7.49881212 156.201379,8.63335758 156.201379,9.78996364 C156.201379,11.0064485 155.981196,12.1756606 155.54083,13.2976 C155.097318,14.4321455 154.474514,15.4311758 153.662982,16.3136 C152.854596,17.1960242 151.88579,17.8925091 150.747128,18.4219636 C149.621049,18.9356606 148.356569,19.2003879 146.985142,19.2003879 L137.624213,19.2003879 L137.624213,29.723297 L133.654626,29.723297 L133.654626,15.8188121 L137.624213,15.8188121 L137.624213,15.9007515 L146.764959,15.9007515 C147.585928,15.9007515 148.321968,15.7400242 148.982518,15.4311758 C149.646213,15.1097212 150.221834,14.6748121 150.687364,14.1012364 C151.152895,13.5371152 151.520915,12.8847515 151.78828,12.1409939 C152.058791,11.4066909 152.181464,10.6156606 152.181464,9.78996364 C152.181464,8.94220606 152.033627,8.1385697 151.728516,7.39481212 C151.410823,6.66050909 151.005057,6.00814545 150.4892,5.4566303 C149.976487,4.90826667 149.375702,4.48281212 148.677407,4.1865697 C148.347132,4.03529697 148.004276,3.92184242 147.648837,3.85250909 L147.648837,0.461478788 C148.677407,0.562327273 149.633631,0.814448485 150.526945,1.22729697 C151.690771,1.76620606 152.697322,2.47844848 153.527727,3.37032727 C154.377005,4.26535758 155.024972,5.27384242 155.490502,6.38632727 Z M185.140364,3.72707879 L174.329372,3.72707879 L174.329372,29.7207758 L170.359784,29.7207758 L170.359784,3.72707879 L159.551938,3.72707879 L159.551938,0.427442424 L185.140364,0.427442424 L185.140364,3.72707879 Z M191.051967,29.7220364 L191.051967,0.425551515 L195.021554,0.425551515 L195.021554,26.4224 L212.491514,26.4224 L212.491514,29.7220364 L191.051967,29.7220364 Z M214.609361,0.427127273 L224.092963,15.6930667 L233.667784,0.427127273 L237.989665,0.427127273 L226.077757,19.0336727 L226.077757,29.7236121 L222.10817,29.7236121 L222.10817,18.9517333 L210.240298,0.427127273 L214.609361,0.427127273 Z M32.8563572,15.8994909 L42.3399596,15.8994909 C43.1640736,15.8994909 43.9064054,15.7356121 44.5701003,15.404703 C45.2306497,15.0737939 45.7968349,14.6262788 46.2686559,14.0621576 C46.7373314,13.5011879 47.1053518,12.8456727 47.3695716,12.1050667 C47.6337914,11.3613091 47.7659013,10.5891879 47.7659013,9.79500606 C47.7659013,8.96615758 47.6149185,8.19088485 47.3035167,7.45973333 C46.9952603,6.73488485 46.5832032,6.08567273 46.0704911,5.52155152 C45.5546334,4.9574303 44.9507025,4.51621818 44.2618439,4.20106667 C43.5698397,3.88591515 42.8432353,3.72833939 42.0788853,3.72833939 L32.8563572,3.72833939 L32.8563572,15.8994909 Z" id="Combined-Shape"></path>
                </g>
            </g>
        </g>
    </g>
</svg>